{
  "PPQN": 96,
  "messages": [
    {
      "octave": 2,
      "noteName": "C2",
      "tick": 0,
      "velocity": 100,
      "noteNumber": 36,
      "timestamp": 0
    },
    {
      "octave": 3,
      "noteName": "D#3",
      "tick": 0,
      "velocity": 103,
      "noteNumber": 51,
      "timestamp": 0
    },
    {
      "octave": 2,
      "noteName": "C2",
      "tick": 96,
      "velocity": 101,
      "noteNumber": 36,
      "timestamp": 455
    },
    {
      "octave": 2,
      "noteName": "C2",
      "tick": 192,
      "velocity": 101,
      "noteNumber": 36,
      "timestamp": 909
    },
    {
      "octave": 2,
      "noteName": "C2",
      "tick": 288,
      "velocity": 101,
      "noteNumber": 36,
      "timestamp": 1364
    },
    {
      "octave": 2,
      "noteName": "C2",
      "tick": 384,
      "velocity": 100,
      "noteNumber": 36,
      "timestamp": 1818
    },
    {
      "octave": 2,
      "noteName": "C2",
      "tick": 480,
      "velocity": 101,
      "noteNumber": 36,
      "timestamp": 2273
    },
    {
      "octave": 2,
      "noteName": "C2",
      "tick": 576,
      "velocity": 101,
      "noteNumber": 36,
      "timestamp": 2727
    },
    {
      "octave": 2,
      "noteName": "C2",
      "tick": 672,
      "velocity": 101,
      "noteNumber": 36,
      "timestamp": 3182
    },
    {
      "octave": 2,
      "noteName": "C2",
      "tick": 768,
      "velocity": 100,
      "noteNumber": 36,
      "timestamp": 3636
    },
    {
      "octave": 2,
      "noteName": "C2",
      "tick": 864,
      "velocity": 101,
      "noteNumber": 36,
      "timestamp": 4091
    },
    {
      "octave": 2,
      "noteName": "C2",
      "tick": 960,
      "velocity": 101,
      "noteNumber": 36,
      "timestamp": 4545
    },
    {
      "octave": 2,
      "noteName": "C2",
      "tick": 1056,
      "velocity": 101,
      "noteNumber": 36,
      "timestamp": 5000
    },
    {
      "octave": 2,
      "noteName": "C2",
      "tick": 1152,
      "velocity": 100,
      "noteNumber": 36,
      "timestamp": 5455
    },
    {
      "octave": 2,
      "noteName": "C2",
      "tick": 1248,
      "velocity": 101,
      "noteNumber": 36,
      "timestamp": 5909
    },
    {
      "octave": 2,
      "noteName": "C2",
      "tick": 1344,
      "velocity": 101,
      "noteNumber": 36,
      "timestamp": 6364
    },
    {
      "octave": 2,
      "noteName": "C2",
      "tick": 1440,
      "velocity": 101,
      "noteNumber": 36,
      "timestamp": 6818
    },
    {
      "octave": 2,
      "noteName": "C2",
      "tick": 1536,
      "velocity": 100,
      "noteNumber": 36,
      "timestamp": 7273
    },
    {
      "octave": 2,
      "noteName": "C2",
      "tick": 1632,
      "velocity": 101,
      "noteNumber": 36,
      "timestamp": 7727
    },
    {
      "octave": 2,
      "noteName": "C2",
      "tick": 1728,
      "velocity": 101,
      "noteNumber": 36,
      "timestamp": 8182
    },
    {
      "octave": 2,
      "noteName": "C2",
      "tick": 1824,
      "velocity": 101,
      "noteNumber": 36,
      "timestamp": 8636
    },
    {
      "octave": 2,
      "noteName": "C2",
      "tick": 1920,
      "velocity": 100,
      "noteNumber": 36,
      "timestamp": 9091
    },
    {
      "octave": 2,
      "noteName": "C2",
      "tick": 2016,
      "velocity": 101,
      "noteNumber": 36,
      "timestamp": 9545
    },
    {
      "octave": 2,
      "noteName": "C2",
      "tick": 2112,
      "velocity": 101,
      "noteNumber": 36,
      "timestamp": 10000
    },
    {
      "octave": 2,
      "noteName": "C2",
      "tick": 2208,
      "velocity": 101,
      "noteNumber": 36,
      "timestamp": 10455
    },
    {
      "octave": 2,
      "noteName": "C2",
      "tick": 2304,
      "velocity": 100,
      "noteNumber": 36,
      "timestamp": 10909
    },
    {
      "octave": 2,
      "noteName": "C2",
      "tick": 2400,
      "velocity": 101,
      "noteNumber": 36,
      "timestamp": 11364
    },
    {
      "octave": 2,
      "noteName": "C2",
      "tick": 2496,
      "velocity": 101,
      "noteNumber": 36,
      "timestamp": 11818
    },
    {
      "octave": 2,
      "noteName": "C2",
      "tick": 2592,
      "velocity": 101,
      "noteNumber": 36,
      "timestamp": 12273
    },
    {
      "octave": 2,
      "noteName": "C2",
      "tick": 2688,
      "velocity": 100,
      "noteNumber": 36,
      "timestamp": 12727
    },
    {
      "octave": 2,
      "noteName": "C2",
      "tick": 2784,
      "velocity": 101,
      "noteNumber": 36,
      "timestamp": 13182
    },
    {
      "octave": 2,
      "noteName": "C2",
      "tick": 2880,
      "velocity": 101,
      "noteNumber": 36,
      "timestamp": 13636
    },
    {
      "octave": 2,
      "noteName": "C2",
      "tick": 2976,
      "velocity": 101,
      "noteNumber": 36,
      "timestamp": 14091
    },
    {
      "octave": 2,
      "noteName": "C2",
      "tick": 3072,
      "velocity": 100,
      "noteNumber": 36,
      "timestamp": 14545
    },
    {
      "octave": 3,
      "noteName": "D#3",
      "tick": 3072,
      "velocity": 103,
      "noteNumber": 51,
      "timestamp": 14545
    },
    {
      "octave": 2,
      "noteName": "C2",
      "tick": 3168,
      "velocity": 101,
      "noteNumber": 36,
      "timestamp": 15000
    },
    {
      "octave": 2,
      "noteName": "D2",
      "tick": 3168,
      "velocity": 102,
      "noteNumber": 38,
      "timestamp": 15000
    },
    {
      "octave": 2,
      "noteName": "C2",
      "tick": 3264,
      "velocity": 101,
      "noteNumber": 36,
      "timestamp": 15455
    },
    {
      "octave": 2,
      "noteName": "C2",
      "tick": 3360,
      "velocity": 101,
      "noteNumber": 36,
      "timestamp": 15909
    },
    {
      "octave": 2,
      "noteName": "D2",
      "tick": 3360,
      "velocity": 102,
      "noteNumber": 38,
      "timestamp": 15909
    },
    {
      "octave": 2,
      "noteName": "C2",
      "tick": 3456,
      "velocity": 100,
      "noteNumber": 36,
      "timestamp": 16364
    },
    {
      "octave": 2,
      "noteName": "C2",
      "tick": 3552,
      "velocity": 101,
      "noteNumber": 36,
      "timestamp": 16818
    },
    {
      "octave": 2,
      "noteName": "D2",
      "tick": 3552,
      "velocity": 102,
      "noteNumber": 38,
      "timestamp": 16818
    },
    {
      "octave": 2,
      "noteName": "C2",
      "tick": 3648,
      "velocity": 101,
      "noteNumber": 36,
      "timestamp": 17273
    },
    {
      "octave": 2,
      "noteName": "C2",
      "tick": 3744,
      "velocity": 101,
      "noteNumber": 36,
      "timestamp": 17727
    },
    {
      "octave": 2,
      "noteName": "D2",
      "tick": 3744,
      "velocity": 102,
      "noteNumber": 38,
      "timestamp": 17727
    },
    {
      "octave": 2,
      "noteName": "C2",
      "tick": 3840,
      "velocity": 100,
      "noteNumber": 36,
      "timestamp": 18182
    },
    {
      "octave": 2,
      "noteName": "C2",
      "tick": 3936,
      "velocity": 101,
      "noteNumber": 36,
      "timestamp": 18636
    },
    {
      "octave": 2,
      "noteName": "D2",
      "tick": 3936,
      "velocity": 102,
      "noteNumber": 38,
      "timestamp": 18636
    },
    {
      "octave": 2,
      "noteName": "C2",
      "tick": 4032,
      "velocity": 101,
      "noteNumber": 36,
      "timestamp": 19091
    },
    {
      "octave": 2,
      "noteName": "C2",
      "tick": 4128,
      "velocity": 101,
      "noteNumber": 36,
      "timestamp": 19545
    },
    {
      "octave": 2,
      "noteName": "D2",
      "tick": 4128,
      "velocity": 102,
      "noteNumber": 38,
      "timestamp": 19545
    },
    {
      "octave": 2,
      "noteName": "C2",
      "tick": 4224,
      "velocity": 100,
      "noteNumber": 36,
      "timestamp": 20000
    },
    {
      "octave": 2,
      "noteName": "C2",
      "tick": 4320,
      "velocity": 101,
      "noteNumber": 36,
      "timestamp": 20455
    },
    {
      "octave": 2,
      "noteName": "D2",
      "tick": 4320,
      "velocity": 102,
      "noteNumber": 38,
      "timestamp": 20455
    },
    {
      "octave": 2,
      "noteName": "C2",
      "tick": 4416,
      "velocity": 101,
      "noteNumber": 36,
      "timestamp": 20909
    },
    {
      "octave": 2,
      "noteName": "C2",
      "tick": 4512,
      "velocity": 101,
      "noteNumber": 36,
      "timestamp": 21364
    },
    {
      "octave": 2,
      "noteName": "D2",
      "tick": 4512,
      "velocity": 102,
      "noteNumber": 38,
      "timestamp": 21364
    },
    {
      "octave": 2,
      "noteName": "C2",
      "tick": 4608,
      "velocity": 100,
      "noteNumber": 36,
      "timestamp": 21818
    },
    {
      "octave": 2,
      "noteName": "C2",
      "tick": 4704,
      "velocity": 101,
      "noteNumber": 36,
      "timestamp": 22273
    },
    {
      "octave": 2,
      "noteName": "D2",
      "tick": 4704,
      "velocity": 102,
      "noteNumber": 38,
      "timestamp": 22273
    },
    {
      "octave": 2,
      "noteName": "C2",
      "tick": 4800,
      "velocity": 101,
      "noteNumber": 36,
      "timestamp": 22727
    },
    {
      "octave": 2,
      "noteName": "C2",
      "tick": 4896,
      "velocity": 101,
      "noteNumber": 36,
      "timestamp": 23182
    },
    {
      "octave": 2,
      "noteName": "D2",
      "tick": 4896,
      "velocity": 102,
      "noteNumber": 38,
      "timestamp": 23182
    },
    {
      "octave": 2,
      "noteName": "C2",
      "tick": 4992,
      "velocity": 100,
      "noteNumber": 36,
      "timestamp": 23636
    },
    {
      "octave": 2,
      "noteName": "C2",
      "tick": 5088,
      "velocity": 101,
      "noteNumber": 36,
      "timestamp": 24091
    },
    {
      "octave": 2,
      "noteName": "D2",
      "tick": 5088,
      "velocity": 102,
      "noteNumber": 38,
      "timestamp": 24091
    },
    {
      "octave": 2,
      "noteName": "C2",
      "tick": 5184,
      "velocity": 101,
      "noteNumber": 36,
      "timestamp": 24545
    },
    {
      "octave": 2,
      "noteName": "C2",
      "tick": 5280,
      "velocity": 101,
      "noteNumber": 36,
      "timestamp": 25000
    },
    {
      "octave": 2,
      "noteName": "D2",
      "tick": 5280,
      "velocity": 102,
      "noteNumber": 38,
      "timestamp": 25000
    },
    {
      "octave": 2,
      "noteName": "C2",
      "tick": 5376,
      "velocity": 100,
      "noteNumber": 36,
      "timestamp": 25455
    },
    {
      "octave": 2,
      "noteName": "C2",
      "tick": 5472,
      "velocity": 101,
      "noteNumber": 36,
      "timestamp": 25909
    },
    {
      "octave": 2,
      "noteName": "D2",
      "tick": 5472,
      "velocity": 102,
      "noteNumber": 38,
      "timestamp": 25909
    },
    {
      "octave": 2,
      "noteName": "C2",
      "tick": 5568,
      "velocity": 101,
      "noteNumber": 36,
      "timestamp": 26364
    },
    {
      "octave": 2,
      "noteName": "C2",
      "tick": 5664,
      "velocity": 101,
      "noteNumber": 36,
      "timestamp": 26818
    },
    {
      "octave": 2,
      "noteName": "D2",
      "tick": 5664,
      "velocity": 102,
      "noteNumber": 38,
      "timestamp": 26818
    },
    {
      "octave": 2,
      "noteName": "C2",
      "tick": 5760,
      "velocity": 100,
      "noteNumber": 36,
      "timestamp": 27273
    },
    {
      "octave": 2,
      "noteName": "C2",
      "tick": 5856,
      "velocity": 101,
      "noteNumber": 36,
      "timestamp": 27727
    },
    {
      "octave": 2,
      "noteName": "D2",
      "tick": 5856,
      "velocity": 102,
      "noteNumber": 38,
      "timestamp": 27727
    },
    {
      "octave": 2,
      "noteName": "C2",
      "tick": 5952,
      "velocity": 101,
      "noteNumber": 36,
      "timestamp": 28182
    },
    {
      "octave": 2,
      "noteName": "C2",
      "tick": 6048,
      "velocity": 101,
      "noteNumber": 36,
      "timestamp": 28636
    },
    {
      "octave": 2,
      "noteName": "D2",
      "tick": 6048,
      "velocity": 102,
      "noteNumber": 38,
      "timestamp": 28636
    },
    {
      "octave": 2,
      "noteName": "D2",
      "tick": 6096,
      "velocity": 102,
      "noteNumber": 38,
      "timestamp": 28864
    },
    {
      "octave": 2,
      "noteName": "C2",
      "tick": 6144,
      "velocity": 100,
      "noteNumber": 36,
      "timestamp": 29091
    },
    {
      "octave": 2,
      "noteName": "F#2",
      "tick": 6144,
      "velocity": 103,
      "noteNumber": 42,
      "timestamp": 29091
    },
    {
      "octave": 3,
      "noteName": "D#3",
      "tick": 6144,
      "velocity": 103,
      "noteNumber": 51,
      "timestamp": 29091
    },
    {
      "octave": 2,
      "noteName": "A#2",
      "tick": 6192,
      "velocity": 103,
      "noteNumber": 46,
      "timestamp": 29318
    },
    {
      "octave": 2,
      "noteName": "C2",
      "tick": 6240,
      "velocity": 101,
      "noteNumber": 36,
      "timestamp": 29545
    },
    {
      "octave": 2,
      "noteName": "D2",
      "tick": 6240,
      "velocity": 102,
      "noteNumber": 38,
      "timestamp": 29545
    },
    {
      "octave": 2,
      "noteName": "F#2",
      "tick": 6240,
      "velocity": 103,
      "noteNumber": 42,
      "timestamp": 29545
    },
    {
      "octave": 2,
      "noteName": "A#2",
      "tick": 6288,
      "velocity": 103,
      "noteNumber": 46,
      "timestamp": 29773
    },
    {
      "octave": 2,
      "noteName": "C2",
      "tick": 6336,
      "velocity": 101,
      "noteNumber": 36,
      "timestamp": 30000
    },
    {
      "octave": 2,
      "noteName": "F#2",
      "tick": 6336,
      "velocity": 103,
      "noteNumber": 42,
      "timestamp": 30000
    },
    {
      "octave": 2,
      "noteName": "A#2",
      "tick": 6384,
      "velocity": 103,
      "noteNumber": 46,
      "timestamp": 30227
    },
    {
      "octave": 2,
      "noteName": "C2",
      "tick": 6432,
      "velocity": 101,
      "noteNumber": 36,
      "timestamp": 30455
    },
    {
      "octave": 2,
      "noteName": "D2",
      "tick": 6432,
      "velocity": 102,
      "noteNumber": 38,
      "timestamp": 30455
    },
    {
      "octave": 2,
      "noteName": "F#2",
      "tick": 6432,
      "velocity": 103,
      "noteNumber": 42,
      "timestamp": 30455
    },
    {
      "octave": 2,
      "noteName": "A#2",
      "tick": 6480,
      "velocity": 103,
      "noteNumber": 46,
      "timestamp": 30682
    },
    {
      "octave": 2,
      "noteName": "C2",
      "tick": 6528,
      "velocity": 100,
      "noteNumber": 36,
      "timestamp": 30909
    },
    {
      "octave": 2,
      "noteName": "F#2",
      "tick": 6528,
      "velocity": 103,
      "noteNumber": 42,
      "timestamp": 30909
    },
    {
      "octave": 2,
      "noteName": "A#2",
      "tick": 6576,
      "velocity": 103,
      "noteNumber": 46,
      "timestamp": 31136
    },
    {
      "octave": 2,
      "noteName": "C2",
      "tick": 6624,
      "velocity": 101,
      "noteNumber": 36,
      "timestamp": 31364
    },
    {
      "octave": 2,
      "noteName": "D2",
      "tick": 6624,
      "velocity": 102,
      "noteNumber": 38,
      "timestamp": 31364
    },
    {
      "octave": 2,
      "noteName": "F#2",
      "tick": 6624,
      "velocity": 103,
      "noteNumber": 42,
      "timestamp": 31364
    },
    {
      "octave": 2,
      "noteName": "A#2",
      "tick": 6672,
      "velocity": 103,
      "noteNumber": 46,
      "timestamp": 31591
    },
    {
      "octave": 2,
      "noteName": "C2",
      "tick": 6720,
      "velocity": 101,
      "noteNumber": 36,
      "timestamp": 31818
    },
    {
      "octave": 2,
      "noteName": "F#2",
      "tick": 6720,
      "velocity": 103,
      "noteNumber": 42,
      "timestamp": 31818
    },
    {
      "octave": 2,
      "noteName": "A#2",
      "tick": 6768,
      "velocity": 103,
      "noteNumber": 46,
      "timestamp": 32045
    },
    {
      "octave": 2,
      "noteName": "C2",
      "tick": 6816,
      "velocity": 101,
      "noteNumber": 36,
      "timestamp": 32273
    },
    {
      "octave": 2,
      "noteName": "D2",
      "tick": 6816,
      "velocity": 102,
      "noteNumber": 38,
      "timestamp": 32273
    },
    {
      "octave": 2,
      "noteName": "F#2",
      "tick": 6816,
      "velocity": 103,
      "noteNumber": 42,
      "timestamp": 32273
    },
    {
      "octave": 2,
      "noteName": "A#2",
      "tick": 6864,
      "velocity": 103,
      "noteNumber": 46,
      "timestamp": 32500
    },
    {
      "octave": 2,
      "noteName": "C2",
      "tick": 6912,
      "velocity": 100,
      "noteNumber": 36,
      "timestamp": 32727
    },
    {
      "octave": 2,
      "noteName": "F#2",
      "tick": 6912,
      "velocity": 103,
      "noteNumber": 42,
      "timestamp": 32727
    },
    {
      "octave": 2,
      "noteName": "A#2",
      "tick": 6960,
      "velocity": 103,
      "noteNumber": 46,
      "timestamp": 32955
    },
    {
      "octave": 2,
      "noteName": "C2",
      "tick": 7008,
      "velocity": 101,
      "noteNumber": 36,
      "timestamp": 33182
    },
    {
      "octave": 2,
      "noteName": "D2",
      "tick": 7008,
      "velocity": 102,
      "noteNumber": 38,
      "timestamp": 33182
    },
    {
      "octave": 2,
      "noteName": "F#2",
      "tick": 7008,
      "velocity": 103,
      "noteNumber": 42,
      "timestamp": 33182
    },
    {
      "octave": 2,
      "noteName": "A#2",
      "tick": 7056,
      "velocity": 103,
      "noteNumber": 46,
      "timestamp": 33409
    },
    {
      "octave": 2,
      "noteName": "C2",
      "tick": 7104,
      "velocity": 101,
      "noteNumber": 36,
      "timestamp": 33636
    },
    {
      "octave": 2,
      "noteName": "F#2",
      "tick": 7104,
      "velocity": 103,
      "noteNumber": 42,
      "timestamp": 33636
    },
    {
      "octave": 2,
      "noteName": "A#2",
      "tick": 7152,
      "velocity": 103,
      "noteNumber": 46,
      "timestamp": 33864
    },
    {
      "octave": 2,
      "noteName": "C2",
      "tick": 7200,
      "velocity": 101,
      "noteNumber": 36,
      "timestamp": 34091
    },
    {
      "octave": 2,
      "noteName": "D2",
      "tick": 7200,
      "velocity": 102,
      "noteNumber": 38,
      "timestamp": 34091
    },
    {
      "octave": 2,
      "noteName": "F#2",
      "tick": 7200,
      "velocity": 103,
      "noteNumber": 42,
      "timestamp": 34091
    },
    {
      "octave": 2,
      "noteName": "A#2",
      "tick": 7248,
      "velocity": 103,
      "noteNumber": 46,
      "timestamp": 34318
    },
    {
      "octave": 2,
      "noteName": "C2",
      "tick": 7296,
      "velocity": 100,
      "noteNumber": 36,
      "timestamp": 34545
    },
    {
      "octave": 2,
      "noteName": "F#2",
      "tick": 7296,
      "velocity": 103,
      "noteNumber": 42,
      "timestamp": 34545
    },
    {
      "octave": 2,
      "noteName": "A#2",
      "tick": 7344,
      "velocity": 103,
      "noteNumber": 46,
      "timestamp": 34773
    },
    {
      "octave": 2,
      "noteName": "C2",
      "tick": 7392,
      "velocity": 101,
      "noteNumber": 36,
      "timestamp": 35000
    },
    {
      "octave": 2,
      "noteName": "D2",
      "tick": 7392,
      "velocity": 102,
      "noteNumber": 38,
      "timestamp": 35000
    },
    {
      "octave": 2,
      "noteName": "F#2",
      "tick": 7392,
      "velocity": 103,
      "noteNumber": 42,
      "timestamp": 35000
    },
    {
      "octave": 2,
      "noteName": "A#2",
      "tick": 7440,
      "velocity": 103,
      "noteNumber": 46,
      "timestamp": 35227
    },
    {
      "octave": 2,
      "noteName": "C2",
      "tick": 7488,
      "velocity": 101,
      "noteNumber": 36,
      "timestamp": 35455
    },
    {
      "octave": 2,
      "noteName": "F#2",
      "tick": 7488,
      "velocity": 103,
      "noteNumber": 42,
      "timestamp": 35455
    },
    {
      "octave": 2,
      "noteName": "A#2",
      "tick": 7536,
      "velocity": 103,
      "noteNumber": 46,
      "timestamp": 35682
    },
    {
      "octave": 2,
      "noteName": "C2",
      "tick": 7584,
      "velocity": 101,
      "noteNumber": 36,
      "timestamp": 35909
    },
    {
      "octave": 2,
      "noteName": "D2",
      "tick": 7584,
      "velocity": 102,
      "noteNumber": 38,
      "timestamp": 35909
    },
    {
      "octave": 2,
      "noteName": "F#2",
      "tick": 7584,
      "velocity": 103,
      "noteNumber": 42,
      "timestamp": 35909
    },
    {
      "octave": 2,
      "noteName": "A#2",
      "tick": 7632,
      "velocity": 103,
      "noteNumber": 46,
      "timestamp": 36136
    },
    {
      "octave": 2,
      "noteName": "C2",
      "tick": 7680,
      "velocity": 100,
      "noteNumber": 36,
      "timestamp": 36364
    },
    {
      "octave": 2,
      "noteName": "F#2",
      "tick": 7680,
      "velocity": 103,
      "noteNumber": 42,
      "timestamp": 36364
    },
    {
      "octave": 2,
      "noteName": "A#2",
      "tick": 7728,
      "velocity": 103,
      "noteNumber": 46,
      "timestamp": 36591
    },
    {
      "octave": 2,
      "noteName": "C2",
      "tick": 7776,
      "velocity": 101,
      "noteNumber": 36,
      "timestamp": 36818
    },
    {
      "octave": 2,
      "noteName": "D2",
      "tick": 7776,
      "velocity": 102,
      "noteNumber": 38,
      "timestamp": 36818
    },
    {
      "octave": 2,
      "noteName": "F#2",
      "tick": 7776,
      "velocity": 103,
      "noteNumber": 42,
      "timestamp": 36818
    },
    {
      "octave": 2,
      "noteName": "A#2",
      "tick": 7824,
      "velocity": 103,
      "noteNumber": 46,
      "timestamp": 37045
    },
    {
      "octave": 2,
      "noteName": "C2",
      "tick": 7872,
      "velocity": 101,
      "noteNumber": 36,
      "timestamp": 37273
    },
    {
      "octave": 2,
      "noteName": "F#2",
      "tick": 7872,
      "velocity": 103,
      "noteNumber": 42,
      "timestamp": 37273
    },
    {
      "octave": 2,
      "noteName": "A#2",
      "tick": 7920,
      "velocity": 103,
      "noteNumber": 46,
      "timestamp": 37500
    },
    {
      "octave": 2,
      "noteName": "C2",
      "tick": 7968,
      "velocity": 101,
      "noteNumber": 36,
      "timestamp": 37727
    },
    {
      "octave": 2,
      "noteName": "D2",
      "tick": 7968,
      "velocity": 102,
      "noteNumber": 38,
      "timestamp": 37727
    },
    {
      "octave": 2,
      "noteName": "F#2",
      "tick": 7968,
      "velocity": 103,
      "noteNumber": 42,
      "timestamp": 37727
    },
    {
      "octave": 2,
      "noteName": "A#2",
      "tick": 8016,
      "velocity": 103,
      "noteNumber": 46,
      "timestamp": 37955
    },
    {
      "octave": 2,
      "noteName": "C2",
      "tick": 8064,
      "velocity": 100,
      "noteNumber": 36,
      "timestamp": 38182
    },
    {
      "octave": 2,
      "noteName": "F#2",
      "tick": 8064,
      "velocity": 103,
      "noteNumber": 42,
      "timestamp": 38182
    },
    {
      "octave": 2,
      "noteName": "A#2",
      "tick": 8112,
      "velocity": 103,
      "noteNumber": 46,
      "timestamp": 38409
    },
    {
      "octave": 2,
      "noteName": "C2",
      "tick": 8160,
      "velocity": 101,
      "noteNumber": 36,
      "timestamp": 38636
    },
    {
      "octave": 2,
      "noteName": "D2",
      "tick": 8160,
      "velocity": 102,
      "noteNumber": 38,
      "timestamp": 38636
    },
    {
      "octave": 2,
      "noteName": "F#2",
      "tick": 8160,
      "velocity": 103,
      "noteNumber": 42,
      "timestamp": 38636
    },
    {
      "octave": 2,
      "noteName": "A#2",
      "tick": 8208,
      "velocity": 103,
      "noteNumber": 46,
      "timestamp": 38864
    },
    {
      "octave": 2,
      "noteName": "C2",
      "tick": 8256,
      "velocity": 101,
      "noteNumber": 36,
      "timestamp": 39091
    },
    {
      "octave": 2,
      "noteName": "F#2",
      "tick": 8256,
      "velocity": 103,
      "noteNumber": 42,
      "timestamp": 39091
    },
    {
      "octave": 2,
      "noteName": "A#2",
      "tick": 8304,
      "velocity": 103,
      "noteNumber": 46,
      "timestamp": 39318
    },
    {
      "octave": 2,
      "noteName": "C2",
      "tick": 8352,
      "velocity": 101,
      "noteNumber": 36,
      "timestamp": 39545
    },
    {
      "octave": 2,
      "noteName": "D2",
      "tick": 8352,
      "velocity": 102,
      "noteNumber": 38,
      "timestamp": 39545
    },
    {
      "octave": 2,
      "noteName": "F#2",
      "tick": 8352,
      "velocity": 103,
      "noteNumber": 42,
      "timestamp": 39545
    },
    {
      "octave": 2,
      "noteName": "A#2",
      "tick": 8400,
      "velocity": 103,
      "noteNumber": 46,
      "timestamp": 39773
    },
    {
      "octave": 2,
      "noteName": "C2",
      "tick": 8448,
      "velocity": 100,
      "noteNumber": 36,
      "timestamp": 40000
    },
    {
      "octave": 2,
      "noteName": "F#2",
      "tick": 8448,
      "velocity": 103,
      "noteNumber": 42,
      "timestamp": 40000
    },
    {
      "octave": 2,
      "noteName": "A#2",
      "tick": 8496,
      "velocity": 103,
      "noteNumber": 46,
      "timestamp": 40227
    },
    {
      "octave": 2,
      "noteName": "C2",
      "tick": 8544,
      "velocity": 101,
      "noteNumber": 36,
      "timestamp": 40455
    },
    {
      "octave": 2,
      "noteName": "D2",
      "tick": 8544,
      "velocity": 102,
      "noteNumber": 38,
      "timestamp": 40455
    },
    {
      "octave": 2,
      "noteName": "F#2",
      "tick": 8544,
      "velocity": 103,
      "noteNumber": 42,
      "timestamp": 40455
    },
    {
      "octave": 2,
      "noteName": "A#2",
      "tick": 8592,
      "velocity": 103,
      "noteNumber": 46,
      "timestamp": 40682
    },
    {
      "octave": 2,
      "noteName": "C2",
      "tick": 8640,
      "velocity": 101,
      "noteNumber": 36,
      "timestamp": 40909
    },
    {
      "octave": 2,
      "noteName": "F#2",
      "tick": 8640,
      "velocity": 103,
      "noteNumber": 42,
      "timestamp": 40909
    },
    {
      "octave": 2,
      "noteName": "A#2",
      "tick": 8688,
      "velocity": 103,
      "noteNumber": 46,
      "timestamp": 41136
    },
    {
      "octave": 2,
      "noteName": "C2",
      "tick": 8736,
      "velocity": 101,
      "noteNumber": 36,
      "timestamp": 41364
    },
    {
      "octave": 2,
      "noteName": "D2",
      "tick": 8736,
      "velocity": 102,
      "noteNumber": 38,
      "timestamp": 41364
    },
    {
      "octave": 2,
      "noteName": "F#2",
      "tick": 8736,
      "velocity": 103,
      "noteNumber": 42,
      "timestamp": 41364
    },
    {
      "octave": 2,
      "noteName": "A#2",
      "tick": 8784,
      "velocity": 103,
      "noteNumber": 46,
      "timestamp": 41591
    },
    {
      "octave": 2,
      "noteName": "C2",
      "tick": 8832,
      "velocity": 100,
      "noteNumber": 36,
      "timestamp": 41818
    },
    {
      "octave": 2,
      "noteName": "F#2",
      "tick": 8832,
      "velocity": 103,
      "noteNumber": 42,
      "timestamp": 41818
    },
    {
      "octave": 2,
      "noteName": "A#2",
      "tick": 8880,
      "velocity": 103,
      "noteNumber": 46,
      "timestamp": 42045
    },
    {
      "octave": 2,
      "noteName": "C2",
      "tick": 8928,
      "velocity": 101,
      "noteNumber": 36,
      "timestamp": 42273
    },
    {
      "octave": 2,
      "noteName": "D2",
      "tick": 8928,
      "velocity": 102,
      "noteNumber": 38,
      "timestamp": 42273
    },
    {
      "octave": 2,
      "noteName": "F#2",
      "tick": 8928,
      "velocity": 103,
      "noteNumber": 42,
      "timestamp": 42273
    },
    {
      "octave": 2,
      "noteName": "A#2",
      "tick": 8976,
      "velocity": 103,
      "noteNumber": 46,
      "timestamp": 42500
    },
    {
      "octave": 2,
      "noteName": "C2",
      "tick": 9024,
      "velocity": 101,
      "noteNumber": 36,
      "timestamp": 42727
    },
    {
      "octave": 2,
      "noteName": "F#2",
      "tick": 9024,
      "velocity": 103,
      "noteNumber": 42,
      "timestamp": 42727
    },
    {
      "octave": 2,
      "noteName": "A#2",
      "tick": 9072,
      "velocity": 103,
      "noteNumber": 46,
      "timestamp": 42955
    },
    {
      "octave": 2,
      "noteName": "C2",
      "tick": 9120,
      "velocity": 101,
      "noteNumber": 36,
      "timestamp": 43182
    },
    {
      "octave": 2,
      "noteName": "D2",
      "tick": 9120,
      "velocity": 102,
      "noteNumber": 38,
      "timestamp": 43182
    },
    {
      "octave": 2,
      "noteName": "F#2",
      "tick": 9120,
      "velocity": 103,
      "noteNumber": 42,
      "timestamp": 43182
    },
    {
      "octave": 2,
      "noteName": "D2",
      "tick": 9168,
      "velocity": 102,
      "noteNumber": 38,
      "timestamp": 43409
    },
    {
      "octave": 2,
      "noteName": "A#2",
      "tick": 9168,
      "velocity": 103,
      "noteNumber": 46,
      "timestamp": 43409
    }
  ],
  "BPM": 132
}